%TF.GenerationSoftware,KiCad,Pcbnew,(6.0.7)*%
%TF.CreationDate,2022-10-02T22:03:49-05:00*%
%TF.ProjectId,OTG_PCB,4f54475f-5043-4422-9e6b-696361645f70,rev?*%
%TF.SameCoordinates,Original*%
%TF.FileFunction,Soldermask,Top*%
%TF.FilePolarity,Negative*%
%FSLAX46Y46*%
G04 Gerber Fmt 4.6, Leading zero omitted, Abs format (unit mm)*
G04 Created by KiCad (PCBNEW (6.0.7)) date 2022-10-02 22:03:49*
%MOMM*%
%LPD*%
G01*
G04 APERTURE LIST*
G04 Aperture macros list*
%AMRoundRect*
0 Rectangle with rounded corners*
0 $1 Rounding radius*
0 $2 $3 $4 $5 $6 $7 $8 $9 X,Y pos of 4 corners*
0 Add a 4 corners polygon primitive as box body*
4,1,4,$2,$3,$4,$5,$6,$7,$8,$9,$2,$3,0*
0 Add four circle primitives for the rounded corners*
1,1,$1+$1,$2,$3*
1,1,$1+$1,$4,$5*
1,1,$1+$1,$6,$7*
1,1,$1+$1,$8,$9*
0 Add four rect primitives between the rounded corners*
20,1,$1+$1,$2,$3,$4,$5,0*
20,1,$1+$1,$4,$5,$6,$7,0*
20,1,$1+$1,$6,$7,$8,$9,0*
20,1,$1+$1,$8,$9,$2,$3,0*%
G04 Aperture macros list end*
%ADD10R,0.200000X0.700001*%
%ADD11R,0.499999X0.200000*%
%ADD12R,0.900000X1.200000*%
%ADD13C,0.650000*%
%ADD14O,1.400000X2.000000*%
%ADD15RoundRect,0.381000X1.119000X0.381000X-1.119000X0.381000X-1.119000X-0.381000X1.119000X-0.381000X0*%
%ADD16O,1.400000X2.500000*%
%ADD17R,0.600000X1.450000*%
%ADD18R,0.300000X1.450000*%
%ADD19RoundRect,0.875000X-0.875000X-0.875000X0.875000X-0.875000X0.875000X0.875000X-0.875000X0.875000X0*%
%ADD20C,0.900000*%
%ADD21R,0.500000X2.500000*%
%ADD22R,2.000000X2.500000*%
%ADD23RoundRect,0.225000X0.250000X-0.225000X0.250000X0.225000X-0.250000X0.225000X-0.250000X-0.225000X0*%
%ADD24RoundRect,0.200000X-0.200000X-0.275000X0.200000X-0.275000X0.200000X0.275000X-0.200000X0.275000X0*%
%ADD25RoundRect,0.200000X0.200000X0.275000X-0.200000X0.275000X-0.200000X-0.275000X0.200000X-0.275000X0*%
%ADD26RoundRect,0.250000X-0.312500X-0.625000X0.312500X-0.625000X0.312500X0.625000X-0.312500X0.625000X0*%
%ADD27RoundRect,0.250000X0.312500X0.625000X-0.312500X0.625000X-0.312500X-0.625000X0.312500X-0.625000X0*%
G04 APERTURE END LIST*
D10*
%TO.C,U2*%
X109442764Y-84543550D03*
X109042764Y-84543550D03*
D11*
X108492763Y-84593552D03*
X108492763Y-84993551D03*
X108492763Y-85393551D03*
X108492763Y-85793550D03*
D10*
X109042764Y-85843552D03*
X109442764Y-85843552D03*
D11*
X109992765Y-85793550D03*
X109992765Y-85393551D03*
X109992765Y-84993551D03*
X109992765Y-84593552D03*
%TD*%
D12*
%TO.C,D1*%
X110892764Y-82593551D03*
X107592764Y-82593551D03*
%TD*%
D13*
%TO.C,J5*%
X113932764Y-73393551D03*
D14*
X106722764Y-69743551D03*
D15*
X113042764Y-69793551D03*
X109042764Y-69793551D03*
D16*
X106722764Y-73923551D03*
D14*
X115362764Y-69743551D03*
D16*
X115362764Y-73923551D03*
D13*
X108152764Y-73393551D03*
D17*
X114292764Y-74838551D03*
X113492764Y-74838551D03*
D18*
X112292764Y-74838551D03*
X111292764Y-74838551D03*
X110792764Y-74838551D03*
D17*
X108592764Y-74838551D03*
X107792764Y-74838551D03*
X107792764Y-74838551D03*
X108592764Y-74838551D03*
D18*
X109292764Y-74838551D03*
X110292764Y-74838551D03*
X111792764Y-74838551D03*
D17*
X113492764Y-74838551D03*
X114292764Y-74838551D03*
%TD*%
D19*
%TO.C,J4*%
X106942764Y-130168551D03*
D20*
X108842764Y-132768551D03*
D19*
X115142764Y-130168551D03*
D20*
X113242764Y-132768551D03*
D21*
X109442764Y-130168551D03*
X110242764Y-130168551D03*
X111042764Y-130168551D03*
X111842764Y-130168551D03*
X112642764Y-130168551D03*
D22*
X106642764Y-135668551D03*
X115442764Y-135668551D03*
%TD*%
D23*
%TO.C,C1*%
X112042764Y-85968551D03*
X112042764Y-84418551D03*
%TD*%
D24*
%TO.C,R4*%
X107617764Y-87393551D03*
X109267764Y-87393551D03*
%TD*%
D25*
%TO.C,R3*%
X112467764Y-87393551D03*
X110817764Y-87393551D03*
%TD*%
D26*
%TO.C,R6*%
X111980264Y-80193551D03*
X114905264Y-80193551D03*
%TD*%
D27*
%TO.C,R7*%
X110105264Y-80193551D03*
X107180264Y-80193551D03*
%TD*%
D26*
%TO.C,R5*%
X111380264Y-77793551D03*
X114305264Y-77793551D03*
%TD*%
M02*
