%TF.GenerationSoftware,KiCad,Pcbnew,(6.0.7)*%
%TF.CreationDate,2022-10-02T22:03:49-05:00*%
%TF.ProjectId,OTG_PCB,4f54475f-5043-4422-9e6b-696361645f70,rev?*%
%TF.SameCoordinates,Original*%
%TF.FileFunction,Glue,Bot*%
%TF.FilePolarity,Positive*%
%FSLAX46Y46*%
G04 Gerber Fmt 4.6, Leading zero omitted, Abs format (unit mm)*
G04 Created by KiCad (PCBNEW (6.0.7)) date 2022-10-02 22:03:49*
%MOMM*%
%LPD*%
G01*
G04 APERTURE LIST*
G04 APERTURE END LIST*
G36*
X116184885Y-126813553D02*
G01*
X116231378Y-126867209D01*
X116242764Y-126919551D01*
X116242764Y-135986946D01*
X116242074Y-136000116D01*
X116225323Y-136159503D01*
X116219846Y-136185269D01*
X116172375Y-136331369D01*
X116161661Y-136355432D01*
X116084850Y-136488474D01*
X116069367Y-136509785D01*
X115966577Y-136623945D01*
X115947002Y-136641571D01*
X115822718Y-136731869D01*
X115799905Y-136745040D01*
X115659567Y-136807522D01*
X115634516Y-136815662D01*
X115484248Y-136847602D01*
X115458051Y-136850355D01*
X115304433Y-136850355D01*
X115278236Y-136847602D01*
X115127968Y-136815662D01*
X115102917Y-136807522D01*
X114962579Y-136745040D01*
X114939766Y-136731869D01*
X114815482Y-136641571D01*
X114795907Y-136623945D01*
X114693117Y-136509785D01*
X114677634Y-136488474D01*
X114600823Y-136355432D01*
X114590109Y-136331369D01*
X114542638Y-136185269D01*
X114537161Y-136159503D01*
X114520409Y-136000116D01*
X114519719Y-135986946D01*
X114519720Y-132472575D01*
X114519585Y-132468443D01*
X114500540Y-132177422D01*
X114499465Y-132169253D01*
X114442970Y-131885232D01*
X114440837Y-131877272D01*
X114347749Y-131603047D01*
X114344604Y-131595453D01*
X114216515Y-131335716D01*
X114212402Y-131328592D01*
X114051508Y-131087800D01*
X114046496Y-131081269D01*
X113855552Y-130863541D01*
X113849739Y-130857728D01*
X113632007Y-130666786D01*
X113625475Y-130661773D01*
X113384685Y-130500884D01*
X113377558Y-130496769D01*
X113117818Y-130368684D01*
X113110229Y-130365541D01*
X112835992Y-130272454D01*
X112828044Y-130270324D01*
X112544013Y-130213830D01*
X112535854Y-130212756D01*
X112244817Y-130193686D01*
X112240712Y-130193551D01*
X109844835Y-130193551D01*
X109840693Y-130193686D01*
X109549688Y-130212722D01*
X109541508Y-130213798D01*
X109257479Y-130270300D01*
X109249542Y-130272426D01*
X108975312Y-130365519D01*
X108967703Y-130368671D01*
X108707989Y-130496751D01*
X108700842Y-130500878D01*
X108460070Y-130661760D01*
X108453535Y-130666775D01*
X108235808Y-130857721D01*
X108229987Y-130863542D01*
X108039051Y-131081267D01*
X108034038Y-131087799D01*
X107873150Y-131328589D01*
X107869034Y-131335719D01*
X107740952Y-131595446D01*
X107737803Y-131603049D01*
X107644719Y-131877274D01*
X107642586Y-131885234D01*
X107586091Y-132169260D01*
X107585017Y-132177416D01*
X107565942Y-132468457D01*
X107565808Y-132472558D01*
X107565809Y-135986945D01*
X107565119Y-136000116D01*
X107548366Y-136159503D01*
X107542889Y-136185268D01*
X107495418Y-136331369D01*
X107484704Y-136355433D01*
X107407893Y-136488473D01*
X107392411Y-136509783D01*
X107289621Y-136623944D01*
X107270045Y-136641570D01*
X107145763Y-136731866D01*
X107122950Y-136745037D01*
X106982609Y-136807520D01*
X106957558Y-136815660D01*
X106807292Y-136847600D01*
X106781095Y-136850353D01*
X106627477Y-136850353D01*
X106601280Y-136847600D01*
X106451014Y-136815660D01*
X106425963Y-136807520D01*
X106285622Y-136745037D01*
X106262809Y-136731866D01*
X106138527Y-136641570D01*
X106118951Y-136623944D01*
X106016161Y-136509783D01*
X106000679Y-136488473D01*
X105923868Y-136355433D01*
X105913154Y-136331369D01*
X105865683Y-136185268D01*
X105860206Y-136159502D01*
X105843454Y-136000116D01*
X105842764Y-135986946D01*
X105842764Y-126919551D01*
X105862766Y-126851430D01*
X105916422Y-126804937D01*
X105968764Y-126793551D01*
X116116764Y-126793551D01*
X116184885Y-126813553D01*
G37*
M02*
